# xmcd CD database file
#
# Track frame offsets:
#	150
#	16075
#	28372
#	41525
#	55750
#	70642
#	87952
#	104060
#	121250
#	134465
#
# Disc length: 1984 seconds
#
# Revision: 2
# Processed by: cddbd v1.5.2PL0 Copyright (c) Steve Scherf et al.
# Submitted via: CDex 1.51
#
DISCID=8307be0a
DTITLE=King Biscuit Boy - King Biscuit Boy
DYEAR=1974
DGENRE=Blues
TTITLE0=Mind Over Matter
TTITLE1=Lovers And Leapers
TTITLE2=I'm Gone
TTITLE3=The Bum Is Mine
TTITLE4=The Greatest Love
TTITLE5=Mean Old Lady
TTITLE6=Deaf, Dumb, Crippled And Blind
TTITLE7=Willie And The Hand Jive
TTITLE8=Caledonia River
TTITLE9=River Boat
EXTD=YEAR: 1974
EXTT0=
EXTT1=
EXTT2=
EXTT3=
EXTT4=
EXTT5=
EXTT6=
EXTT7=
EXTT8=
EXTT9=
PLAYORDER=
